<svg class="svg-icon" style="width: 1em; height: 1em;vertical-align: middle;fill: currentColor;overflow: hidden;" viewBox="0 0 1024 1024" version="1.1" xmlns="http://www.w3.org/2000/svg"><path d="M938.666667 362.666667h-106.666667V192h-170.666667V106.666667h-21.333333V0h-42.666667v106.666667h-64V0h-42.666666v106.666667h-64V0h-42.666667v106.666667h-21.333333v85.333333H192v170.666667H85.333333v42.666666H0v42.666667h85.333333v64H0v42.666667h85.333333v42.666666H0v42.666667h85.333333v21.333333h106.666667v170.666667h170.666667v106.666667h21.333333v85.333333h42.666667v-85.333333h64v85.333333h42.666666v-85.333333h64v85.333333h42.666667v-85.333333h21.333333v-106.666667h170.666667v-170.666667h106.666667v-21.333333h85.333333v-42.666667h-85.333333v-42.666666h85.333333v-42.666667h-85.333333v-64h85.333333v-42.666667h-85.333333zM192 618.666667H128V405.333333h64zM405.333333 149.333333h213.333334v42.666667H405.333333z m213.333334 746.666667H405.333333v-64h213.333334z m170.666666-106.666667H234.666667V234.666667h554.666666z m106.666667-170.666666h-64V405.333333h64z"  /><path d="M320 341.333333h85.333333v42.666667h-85.333333z"  /><path d="M469.333333 341.333333h85.333334v42.666667h-85.333334z"  /><path d="M618.666667 341.333333h85.333333v42.666667h-85.333333z"  /><path d="M320 448h85.333333v42.666667h-85.333333z"  /><path d="M469.333333 448h85.333334v42.666667h-85.333334z"  /><path d="M618.666667 448h85.333333v42.666667h-85.333333z"  /><path d="M320 554.666667h85.333333v42.666666h-85.333333z"  /><path d="M469.333333 554.666667h85.333334v42.666666h-85.333334z"  /><path d="M618.666667 554.666667h85.333333v42.666666h-85.333333z"  /><path d="M320 661.333333h85.333333v42.666667h-85.333333z"  /><path d="M469.333333 661.333333h85.333334v42.666667h-85.333334z"  /><path d="M618.666667 661.333333h85.333333v42.666667h-85.333333z"  /></svg>